<svg xmlns="http://www.w3.org/2000/svg" viewBox="0 0 204.09 134.36"><defs><style>.cls-1{fill:#f39c12;}.cls-2{fill:#0b0b0b;}</style></defs><g id="Capa_2" data-name="Capa 2"><g id="Capa_1-2" data-name="Capa 1"><path class="cls-1" d="M186.65,9.67a17.57,17.57,0,0,0-5.21.79,17.44,17.44,0,0,0-32.17.49A17.44,17.44,0,0,0,139,44.29V68.81a4.65,4.65,0,0,0,4.63,4.63h43.6a4.65,4.65,0,0,0,4.63-4.63V43.75a17.44,17.44,0,0,0-5.24-34.08ZM145,22.8a1.22,1.22,0,0,1,.93-1.2,1.46,1.46,0,0,1,1.25.44L157.7,32.56l5.1,5.11-5,5c-.55-.49-1.11-1-1.7-1.62C147.16,32.16,144.65,26.23,145,22.8ZM181.51,60a2.71,2.71,0,0,1-3.8-.17l-11.2-12.3a7.2,7.2,0,0,1-2.59-.58L168,42.87l2.67,2.67,10.67,10.67A2.7,2.7,0,0,1,181.51,60Zm4.77-30.73-8.61,8.61c-2.83,2.82-4.79,1.92-6.57.32L148.91,60.4a2.58,2.58,0,1,1-3.63-3.64l22.19-22.18c-1.61-1.78-2.51-3.74.3-6.56l-.64.65.65-.66h0l8.63-8.62c.39-.4,1.18-.26,1.75.31a1.3,1.3,0,0,1,.3,1.75l-8,8a1.19,1.19,0,0,0,.2,1.65,1.21,1.21,0,0,0,1.65.21l8-8c.4-.4,1.18-.26,1.75.31a1.31,1.31,0,0,1,.31,1.75l-8,8a1.21,1.21,0,0,0,.21,1.65,1.19,1.19,0,0,0,1.65.2l8-8a1.29,1.29,0,0,1,1.75.31C186.54,28.1,186.68,28.88,186.28,29.28Z"/><path class="cls-2" d="M2.65,73a2.54,2.54,0,0,1-1.88-.76A2.57,2.57,0,0,1,0,70.38V35.85a2.54,2.54,0,0,1,.77-1.91,2.6,2.6,0,0,1,1.88-.74H25.7a2.6,2.6,0,0,1,1.89.69,2.38,2.38,0,0,1,.71,1.81,2.23,2.23,0,0,1-.71,1.73,2.63,2.63,0,0,1-1.89.67H5.3V50.49H19.94a2.62,2.62,0,0,1,1.89.69,2.54,2.54,0,0,1,0,3.52,2.62,2.62,0,0,1-1.89.69H5.3V68.14H25.7a2.67,2.67,0,0,1,1.89.66,2.23,2.23,0,0,1,.71,1.73,2.38,2.38,0,0,1-.71,1.81A2.6,2.6,0,0,1,25.7,73Z"/><path class="cls-2" d="M46.82,73.24a12.24,12.24,0,0,1-6.69-1.87,13.24,13.24,0,0,1-4.66-5,15,15,0,0,1-1.71-7.22,14.17,14.17,0,0,1,1.86-7.24,13.75,13.75,0,0,1,5.05-5.08A14,14,0,0,1,60,51.87a14.17,14.17,0,0,1,1.86,7.24h-2a15,15,0,0,1-1.71,7.22,13.24,13.24,0,0,1-4.66,5A12.23,12.23,0,0,1,46.82,73.24Zm1-4.59a8.74,8.74,0,0,0,4.64-1.25A9,9,0,0,0,55.69,64a10.82,10.82,0,0,0,0-9.79,9,9,0,0,0-12.47-3.42A8.94,8.94,0,0,0,40,54.19,10.58,10.58,0,0,0,40,64a9.08,9.08,0,0,0,3.26,3.42A8.79,8.79,0,0,0,47.84,68.65Zm11.42,4.43a2.53,2.53,0,0,1-2.6-2.6v-7.8l1-5.41,4.23,1.84V70.48a2.52,2.52,0,0,1-.74,1.86A2.49,2.49,0,0,1,59.26,73.08Z"/><path class="cls-2" d="M79.76,73.24a19.28,19.28,0,0,1-6.6-1.1,12.61,12.61,0,0,1-4.72-2.78,2.23,2.23,0,0,1-.64-1.86,2.46,2.46,0,0,1,1-1.71,2.68,2.68,0,0,1,2-.69,2.8,2.8,0,0,1,1.71.89A8,8,0,0,0,75.3,67.8a10.45,10.45,0,0,0,4.26.85,8.66,8.66,0,0,0,4.51-1,3,3,0,0,0,1.6-2.5,3.09,3.09,0,0,0-1.45-2.65,13.89,13.89,0,0,0-5.48-1.84c-3.43-.68-5.93-1.7-7.47-3.06a6.4,6.4,0,0,1-2.32-5,6.23,6.23,0,0,1,1.53-4.31,9.26,9.26,0,0,1,3.93-2.55,14.94,14.94,0,0,1,5-.84,15.66,15.66,0,0,1,6,1.07,10.24,10.24,0,0,1,4.13,3,2.3,2.3,0,0,1,.66,1.71,2,2,0,0,1-.86,1.5,2.47,2.47,0,0,1-1.94.36,3.66,3.66,0,0,1-1.89-.92,7,7,0,0,0-2.75-1.68,11.46,11.46,0,0,0-3.42-.46,8.55,8.55,0,0,0-3.8.76A2.41,2.41,0,0,0,74,52.48a3,3,0,0,0,.48,1.66,4.08,4.08,0,0,0,1.91,1.32,24.21,24.21,0,0,0,4.19,1.15,22.92,22.92,0,0,1,6,1.94,8,8,0,0,1,3.18,2.73,6.59,6.59,0,0,1,1,3.59,7.4,7.4,0,0,1-1.25,4.23,8.47,8.47,0,0,1-3.67,3A14.31,14.31,0,0,1,79.76,73.24Z"/><path class="cls-2" d="M108.32,71.91a2.34,2.34,0,0,1-1.81.08,2.69,2.69,0,0,1-1.35-1.3L93.48,48.5a2.09,2.09,0,0,1-.13-1.86,2.44,2.44,0,0,1,4.52-.08L109,68.75a3.06,3.06,0,0,1,.39,1.86A1.66,1.66,0,0,1,108.32,71.91Zm-6,13.36a3.08,3.08,0,0,1-1.22-.31,2.14,2.14,0,0,1-1.23-3.21l15.56-35.14a2.22,2.22,0,0,1,3.21-1.22,2.13,2.13,0,0,1,1.28,3.21L104.29,83.69A2.09,2.09,0,0,1,102.3,85.27Z"/><path class="cls-2" d="M96.92,134.07a2.58,2.58,0,0,1-1.88-.64,2.53,2.53,0,0,1-.67-1.91v-22.8a2.33,2.33,0,0,1,2.55-2.55,2.26,2.26,0,0,1,2.56,2.55v22.8a2.63,2.63,0,0,1-.64,1.89A2.57,2.57,0,0,1,96.92,134.07Zm0-17.44a10.1,10.1,0,0,1,1.51-5.48,10.93,10.93,0,0,1,4.05-3.85,11.2,11.2,0,0,1,5.61-1.43,8.45,8.45,0,0,1,4.57,1,2.1,2.1,0,0,1,1.14,2.37,1.88,1.88,0,0,1-1.58,1.58,2.83,2.83,0,0,1-1.22,0,14.42,14.42,0,0,0-5.87-.1,8,8,0,0,0-4.1,2.09,5.32,5.32,0,0,0-1.5,3.88Z"/><path class="cls-2" d="M129.77,134.27a14,14,0,0,1-7.17-1.86,13.8,13.8,0,0,1-5-5.07,14.19,14.19,0,0,1-1.86-7.24,15,15,0,0,1,1.71-7.22,13.22,13.22,0,0,1,4.67-5,12.28,12.28,0,0,1,6.68-1.86,12.54,12.54,0,0,1,9.84,4.64V96.84a2.53,2.53,0,0,1,.74-1.89,2.59,2.59,0,0,1,4.46,1.89V120.1a14.19,14.19,0,0,1-1.86,7.24,13.71,13.71,0,0,1-12.16,6.93Zm0-4.59a8.65,8.65,0,0,0,4.64-1.25,8.8,8.8,0,0,0,3.21-3.44,10.21,10.21,0,0,0,1.17-4.89,10.06,10.06,0,0,0-1.17-4.9,8.87,8.87,0,0,0-3.21-3.39,9.2,9.2,0,0,0-9.26,0,9,9,0,0,0-3.26,3.39,9.86,9.86,0,0,0-1.2,4.9,10,10,0,0,0,1.2,4.89,8.92,8.92,0,0,0,3.26,3.44A8.7,8.7,0,0,0,129.77,129.68Z"/><path class="cls-2" d="M166.08,134.27a15.27,15.27,0,0,1-7.52-1.81,13.18,13.18,0,0,1-5.16-5,14.28,14.28,0,0,1-1.86-7.32,15,15,0,0,1,1.76-7.37,12.86,12.86,0,0,1,4.87-5,13.93,13.93,0,0,1,7.14-1.81,12.84,12.84,0,0,1,6.84,1.76,11.55,11.55,0,0,1,4.36,4.84,16.1,16.1,0,0,1,1.5,7.12,2.15,2.15,0,0,1-.66,1.61,2.38,2.38,0,0,1-1.69.63H155.11v-4.08h20.4l-2.09,1.43a10.91,10.91,0,0,0-1-4.56,7.41,7.41,0,0,0-7.09-4.36,9.28,9.28,0,0,0-5,1.27,8.23,8.23,0,0,0-3.14,3.49,11.5,11.5,0,0,0-1.07,5,9.79,9.79,0,0,0,1.28,5,9.28,9.28,0,0,0,3.52,3.46,10.22,10.22,0,0,0,5.15,1.28,9.76,9.76,0,0,0,3.24-.59A10.05,10.05,0,0,0,172,128a2.94,2.94,0,0,1,1.66-.59,2.32,2.32,0,0,1,1.56.54,2.42,2.42,0,0,1,.91,1.68,1.78,1.78,0,0,1-.81,1.58,14.24,14.24,0,0,1-4.31,2.25A15.37,15.37,0,0,1,166.08,134.27Z"/><path class="cls-2" d="M187.19,134.07a2.59,2.59,0,0,1-1.89-.64,2.53,2.53,0,0,1-.66-1.91v-22.8a2.32,2.32,0,0,1,2.55-2.55,2.26,2.26,0,0,1,2.55,2.55v22.8a2.59,2.59,0,0,1-.64,1.89A2.53,2.53,0,0,1,187.19,134.07Zm-.05-17.44a10.18,10.18,0,0,1,1.5-5.48,10.89,10.89,0,0,1,4.06-3.85,11.2,11.2,0,0,1,5.61-1.43,8.39,8.39,0,0,1,4.56,1,2.12,2.12,0,0,1,1.15,2.37,1.9,1.9,0,0,1-1.58,1.58,2.88,2.88,0,0,1-1.23,0,14.37,14.37,0,0,0-5.86-.1,8,8,0,0,0-4.11,2.09,5.32,5.32,0,0,0-1.5,3.88Z"/><path class="cls-2" d="M77.73,105.85a17.35,17.35,0,1,1-4.4-6.6L77,95.59a22.57,22.57,0,1,0,4.67,6.33Z"/><polygon class="cls-1" points="61.23 121.56 47.72 107.26 51.48 103.7 61.23 114.01 84.92 88.94 88.69 92.5 61.23 121.56"/></g></g></svg>